<?xml version="1.0" encoding="UTF-8"?>
<svg version="1.1" xmlns="http://www.w3.org/2000/svg" width="724" height="205">
<path d="M0 0 C2.51254749 0.91365363 3.46052833 1.59630377 5.0625 3.75 C5.40307617 6.75268555 5.40307617 6.75268555 5.35546875 10.38671875 C5.34422974 12.14181763 5.34422974 12.14181763 5.33276367 13.93237305 C5.30545166 15.41906494 5.27813965 16.90575684 5.25 18.4375 C5.188125 23.160625 5.12625 27.88375 5.0625 32.75 C15.9525 32.75 26.8425 32.75 38.0625 32.75 C37.0725 30.77 36.0825 28.79 35.0625 26.75 C34.13856301 20.97539383 34.1705988 15.44123205 37.1875 10.3125 C40.35305951 5.99582794 43.90460256 2.46929915 49.0625 0.75 C56.52118065 0.08482526 62.04799366 0.08568896 68.0625 4.75 C72.83456254 9.52206254 75.3506353 13.71708528 75.5 20.5 C75.37298677 27.45185747 73.28721428 31.45272965 68.5 36.34765625 C65.90147211 38.67983503 64.62772976 39.75 61.0625 39.75 C61.07249275 40.75478142 61.07249275 40.75478142 61.08268738 41.77986145 C61.1489514 48.73869029 61.19426348 55.69742981 61.22729492 62.65649414 C61.24240063 65.25516397 61.26288634 67.85380823 61.28881836 70.45239258 C61.32512243 74.18316958 61.34220858 77.91361013 61.35546875 81.64453125 C61.37095261 82.81023148 61.38643646 83.9759317 61.40238953 85.17695618 C61.40261612 86.25785019 61.40284271 87.3387442 61.40307617 88.45239258 C61.41306892 89.88135612 61.41306892 89.88135612 61.42326355 91.33918762 C61.0625 93.75 61.0625 93.75 59.76387024 95.55766296 C56.92802482 97.54505139 54.39348516 97.1133802 51.0625 96.75 C48.91467167 93.52825751 48.81600852 92.7066269 48.83544922 89.00317383 C48.83560028 88.04240433 48.83575134 87.08163483 48.83590698 86.0917511 C48.84622955 85.05729355 48.85655212 84.022836 48.8671875 82.95703125 C48.8700174 81.89586594 48.87284729 80.83470062 48.87576294 79.74137878 C48.88696816 76.34830503 48.91207353 72.95549413 48.9375 69.5625 C48.94752935 67.26367568 48.95665528 64.96484724 48.96484375 62.66601562 C48.98520798 57.02716072 49.02435654 51.388875 49.0625 45.75 C34.5425 45.75 20.0225 45.75 5.0625 45.75 C4.7077668 56.16158682 4.7077668 56.16158682 8.8125 59.0625 C9.885 59.619375 10.9575 60.17625 12.0625 60.75 C16.85377171 65.47617291 19.35153619 69.75799635 19.5 76.5 C19.39751064 82.5029484 18.02651328 86.26611612 14.0625 90.75 C8.20254068 96.1811818 3.83423345 97.16400631 -4.03125 96.9921875 C-9.61724032 96.52668831 -12.5611498 94.35527319 -16.1875 90.3125 C-20.70565649 84.88342487 -21.39106849 80.74113936 -21.24609375 73.72265625 C-20.54112041 66.93171056 -16.64511065 63.09638948 -11.5234375 58.9140625 C-9.9375 57.75 -9.9375 57.75 -7.9375 56.75 C-7.93163376 56.0926738 -7.92576752 55.4353476 -7.91972351 54.75810242 C-7.85588697 47.92869902 -7.77149271 41.09977113 -7.67504883 34.27075195 C-7.6417539 31.72068544 -7.61373637 29.17054441 -7.59106445 26.62036133 C-7.557603 22.95882351 -7.50529019 19.29797136 -7.44921875 15.63671875 C-7.44282883 14.4928923 -7.4364389 13.34906586 -7.42985535 12.170578 C-7.41006119 11.10970474 -7.39026703 10.04883148 -7.36987305 8.95581055 C-7.35876999 8.02093307 -7.34766693 7.0860556 -7.33622742 6.12284851 C-6.86541824 3.3210375 -6.1538848 2.46590194 -3.9375 0.75 C-1.9375 -0.25 -1.9375 -0.25 0 0 Z M50.25 14.3125 C47.5936421 17.27244166 46.98145268 18.77868124 47.0625 22.75 C48.98052587 26.20244657 50.27793607 27.46622156 54 28.8125 C57.15234175 28.98699065 57.15234175 28.98699065 59.875 27.1875 C62.5313579 24.22755834 63.14354732 22.72131876 63.0625 18.75 C61.14447413 15.29755343 59.84706393 14.03377844 56.125 12.6875 C52.97265825 12.51300935 52.97265825 12.51300935 50.25 14.3125 Z " fill="#4E39F3" transform="translate(83.9375,52.25)"/>
<path d="M0 0 C7.07469614 5.69051646 12.33008594 12.20422407 13.875 21.3125 C14.85189673 31.73806999 12.24864261 40.27594183 5.71875 48.48828125 C-2.0623973 56.18700114 -10.14695766 57.61724054 -20.62475586 57.62719727 C-29.74540906 57.46281736 -35.68744552 54.44190847 -42.3359375 48.23046875 C-48.63943133 41.47279305 -51.68067373 33.73271176 -51.37109375 24.4453125 C-50.23320463 14.58360675 -45.98359209 7.21939139 -38.3125 1 C-26.54487288 -7.1485267 -12.33433093 -6.6605387 0 0 Z M-31.875 12.5625 C-35.80599602 17.36705069 -37.69863907 21.97926008 -37.40625 28.265625 C-36.6899626 33.47860552 -35.23712769 37.6914923 -31.1875 41.1875 C-25.09099622 45.41772711 -20.52962481 46.16203911 -13.125 45.3125 C-7.31725757 43.34467519 -3.84749583 39.3268677 -0.875 34.125 C0.90302909 27.4573909 0.65922921 21.12556666 -2.78515625 15.0703125 C-5.96508668 10.89839211 -9.99085211 8.31108672 -15.125 7.3125 C-21.9055637 6.80075934 -26.59367691 8.24141747 -31.875 12.5625 Z " fill="#1D293B" transform="translate(391.125,76.6875)"/>
<path d="M0 0 C7.55025053 6.15482469 11.61978951 13.72483607 12.73046875 23.375 C13.03365554 31.76848687 10.21565653 40.0956964 5.0390625 46.7421875 C-1.23757225 53.0822226 -8.64534212 56.49722172 -17.57275391 56.68505859 C-27.73599437 56.66007633 -36.15814962 55.40822506 -43.90625 48.2109375 C-50.18885236 40.73310835 -52.92476393 32.69882361 -52.78125 23.0546875 C-51.90653591 14.25756291 -48.04877545 7.15432916 -41.5078125 1.3046875 C-29.32777349 -8.09408276 -12.7979276 -8.65155853 0 0 Z M-35.5078125 14.3046875 C-38.96196777 19.42636601 -39.34053742 24.30906805 -38.5078125 30.3046875 C-36.53559018 36.49704144 -33.28031256 40.08794067 -27.6796875 43.37890625 C-22.85173109 45.43686609 -17.01614615 45.27391095 -12.15234375 43.39453125 C-6.75850932 40.24728452 -3.50160707 36.2860712 -1.5078125 30.3046875 C-0.90287654 24.30186141 -1.5197395 19.66261151 -4.5078125 14.3046875 C-8.75234602 9.1169243 -13.32848037 6.64533023 -20.0078125 5.9296875 C-26.72152763 6.64901412 -31.19318342 9.15110277 -35.5078125 14.3046875 Z " fill="#1D283A" transform="translate(324.5078125,77.6953125)"/>
<path d="M0 0 C4.57962902 3.25966565 8.62573518 6.80629571 11 12 C11 12.66 11 13.32 11 14 C9.39967863 14.84069415 7.79458829 15.67231505 6.1875 16.5 C5.29417969 16.9640625 4.40085937 17.428125 3.48046875 17.90625 C1 19 1 19 -2 19 C-2.598125 18.071875 -3.19625 17.14375 -3.8125 16.1875 C-6.31122285 12.54650384 -7.87022227 11.45756861 -12 10 C-17.81983756 9.24557661 -22.36424414 10.47038979 -27 14 C-31.47180297 19.09810591 -31.66866861 25.34422963 -31.44921875 31.8671875 C-30.78496564 36.49963093 -29.24402098 39.64411623 -26 43 C-21.12374731 46.62883921 -15.86684114 46.81690193 -10 46 C-6.96272622 45.04801867 -5.59395764 44.06457853 -3 42 C-2.01 39.69 -1.02 37.38 0 35 C-5.28 35 -10.56 35 -16 35 C-16 31.37 -16 27.74 -16 24 C-13.15326245 22.57663123 -10.85384653 22.99241163 -7.6796875 23.12109375 C-6.42285156 23.16943359 -5.16601562 23.21777344 -3.87109375 23.26757812 C-2.55238281 23.32365234 -1.23367187 23.37972656 0.125 23.4375 C1.46482438 23.49072413 2.80466808 23.54346451 4.14453125 23.59570312 C7.42990887 23.72570008 10.71500678 23.86067686 14 24 C14.01703503 25.5715762 14.02906935 27.143207 14.0390625 28.71484375 C14.04631348 29.59003662 14.05356445 30.46522949 14.06103516 31.36694336 C13.8748305 39.3998121 11.49351953 46.03656638 6 52 C-3.19587342 58.82182212 -11.84413106 60.01934688 -23 59 C-30.5869213 57.22615643 -37.2204034 52.08317913 -41.57421875 45.6875 C-46.52804844 37.05733252 -47.57909258 27.96322751 -45.3515625 18.140625 C-42.10210742 9.19768024 -36.46601418 3.28681027 -28.11328125 -1.08984375 C-19.62178705 -4.74699375 -8.15588765 -4.39400374 0 0 Z " fill="#1D293B" transform="translate(256,75)"/>
<path d="M0 0 C35.7643617 0 35.7643617 0 45.34765625 9.2109375 C51.86908592 16.27196537 53.49307424 23.46845034 53.31640625 32.8671875 C52.53527641 40.6013373 49.72313239 47.65011538 44 53 C29.00655239 63.33694599 22.26987209 60 0 60 C0 40.2 0 20.4 0 0 Z M14 12 C14 24.21 14 36.42 14 49 C24.89487364 49.34740611 24.89487364 49.34740611 33.79296875 44.34765625 C38.77646406 38.74862233 39.29525215 34.35572571 39.21484375 26.94921875 C38.84544675 21.87840535 37.24333214 19.1476912 33.5625 15.75 C26.22915544 10.74186225 24.76286392 12 14 12 Z " fill="#1E293C" transform="translate(410,73)"/>
<path d="M0 0 C8 0 8 0 9.84765625 1.37915039 C10.24855469 2.02875732 10.64945313 2.67836426 11.0625 3.34765625 C11.54170898 4.08773926 12.02091797 4.82782227 12.51464844 5.59033203 C13.00481445 6.40614746 13.49498047 7.22196289 14 8.0625 C15.10733768 9.79167095 16.21681657 11.51947205 17.328125 13.24609375 C17.91271484 14.17147949 18.49730469 15.09686523 19.09960938 16.05029297 C22.50731042 21.33958434 26.14050113 26.47232716 29.75 31.625 C30.45382812 32.63828369 31.15765625 33.65156738 31.8828125 34.69555664 C34.70591369 39.03712786 34.70591369 39.03712786 38 43 C38.33 28.81 38.66 14.62 39 0 C41.64 0 44.28 0 47 0 C47 19.8 47 39.6 47 60 C39 60 39 60 37.06054688 58.52905273 C36.61775391 57.83755127 36.17496094 57.1460498 35.71875 56.43359375 C35.1942627 55.64823242 34.66977539 54.86287109 34.12939453 54.05371094 C33.59169434 53.19036133 33.05399414 52.32701172 32.5 51.4375 C31.30037083 49.61790141 30.09980987 47.79891688 28.8984375 45.98046875 C28.27291992 45.01415527 27.64740234 44.0478418 27.00292969 43.05224609 C23.49351232 37.70427731 19.79493816 32.48840073 16.125 27.25 C13.77375 23.8675 11.4225 20.485 9 17 C8.67 31.19 8.34 45.38 8 60 C5.36 60 2.72 60 0 60 C0 40.2 0 20.4 0 0 Z " fill="#63738B" transform="translate(528,73)"/>
<path d="M0 0 C13.2 0 26.4 0 40 0 C40 2.31 40 4.62 40 7 C29.44 7 18.88 7 8 7 C8 13.6 8 20.2 8 27 C10.49433594 26.87431641 10.49433594 26.87431641 13.0390625 26.74609375 C15.23435937 26.64289603 17.42967278 26.54004989 19.625 26.4375 C20.71941406 26.38142578 21.81382812 26.32535156 22.94140625 26.26757812 C24.00488281 26.21923828 25.06835938 26.17089844 26.1640625 26.12109375 C27.13811035 26.0739624 28.1121582 26.02683105 29.11572266 25.97827148 C32.17499807 26.00131834 34.9999001 26.42215975 38 27 C38 29.31 38 31.62 38 34 C28.1 34 18.2 34 8 34 C8 40.27 8 46.54 8 53 C9.72347656 52.98839844 11.44695313 52.97679687 13.22265625 52.96484375 C15.50260308 52.95546125 17.78255109 52.94636154 20.0625 52.9375 C21.7630957 52.92493164 21.7630957 52.92493164 23.49804688 52.91210938 C29.10878867 52.89575153 34.47649331 52.98187903 40 54 C40 55.98 40 57.96 40 60 C26.8 60 13.6 60 0 60 C0 40.2 0 20.4 0 0 Z " fill="#617189" transform="translate(585,73)"/>
<path d="M0 0 C2.64 0 5.28 0 8 0 C8.33 17.49 8.66 34.98 9 53 C15.6 53 22.2 53 29 53 C30.98 53.33 32.96 53.66 35 54 C35 55.98 35 57.96 35 60 C23.45 60 11.9 60 0 60 C0 40.2 0 20.4 0 0 Z " fill="#64738A" transform="translate(469,73)"/>
<path d="M0 0 C5.36668595 2.85512431 9.57814555 7.68670062 11.83203125 13.31640625 C12.09765625 16.26171875 12.09765625 16.26171875 12.08203125 19.44140625 C12.08976562 21.02308594 12.08976562 21.02308594 12.09765625 22.63671875 C11.83203125 25.31640625 11.83203125 25.31640625 9.83203125 27.31640625 C9.83203125 25.66640625 9.83203125 24.01640625 9.83203125 22.31640625 C9.33703125 22.81140625 9.33703125 22.81140625 8.83203125 23.31640625 C8.17203125 23.64640625 7.51203125 23.97640625 6.83203125 24.31640625 C6.83203125 22.99640625 6.83203125 21.67640625 6.83203125 20.31640625 C7.82203125 19.98640625 8.81203125 19.65640625 9.83203125 19.31640625 C9.50203125 17.66640625 9.17203125 16.01640625 8.83203125 14.31640625 C7.84203125 14.31640625 6.85203125 14.31640625 5.83203125 14.31640625 C3.613367 13.20707413 1.81376031 11.80270305 -0.16796875 10.31640625 C-2.56003683 9.12037221 -4.0107217 9.24738685 -6.66796875 9.31640625 C-10.94574653 9.42751736 -10.94574653 9.42751736 -13.16796875 8.31640625 C-13.16796875 7.65640625 -13.16796875 6.99640625 -13.16796875 6.31640625 C-14.48796875 6.31640625 -15.80796875 6.31640625 -17.16796875 6.31640625 C-17.16796875 6.97640625 -17.16796875 7.63640625 -17.16796875 8.31640625 C-13.85682041 9.44520682 -10.57818618 10.529433 -7.16796875 11.31640625 C-8.11671875 11.74953125 -9.06546875 12.18265625 -10.04296875 12.62890625 C-13.36838812 14.10942826 -13.36838812 14.10942826 -15.16796875 17.31640625 C-15.02533587 20.73959542 -14.75256908 22.64519846 -12.48046875 25.25390625 C-9.25676758 26.73506625 -7.52542556 26.3656115 -4.16796875 25.31640625 C-1.8116505 23.37924587 -1.8116505 23.37924587 -0.16796875 21.31640625 C-0.55972148 23.7557199 -0.90519235 25.04811223 -2.65625 26.8359375 C-3.25824219 27.26261719 -3.86023438 27.68929687 -4.48046875 28.12890625 C-5.07472656 28.56847656 -5.66898438 29.00804688 -6.28125 29.4609375 C-8.65001039 30.53497171 -9.76889906 30.17964766 -12.16796875 29.31640625 C-12.16796875 28.65640625 -12.16796875 27.99640625 -12.16796875 27.31640625 C-13.81796875 26.98640625 -15.46796875 26.65640625 -17.16796875 26.31640625 C-18.16796875 21.31640625 -18.16796875 21.31640625 -19.16796875 16.31640625 C-19.82796875 16.31640625 -20.48796875 16.31640625 -21.16796875 16.31640625 C-21.29296875 8.56640625 -21.29296875 8.56640625 -20.16796875 6.31640625 C-20.82796875 6.64640625 -21.48796875 6.97640625 -22.16796875 7.31640625 C-22.89872523 9.63046845 -23.56935133 11.96469494 -24.16796875 14.31640625 C-24.49796875 14.31640625 -24.82796875 14.31640625 -25.16796875 14.31640625 C-25.39160245 15.73073831 -25.59623351 17.14808243 -25.79296875 18.56640625 C-25.90898438 19.3553125 -26.025 20.14421875 -26.14453125 20.95703125 C-26.17163459 23.68543375 -25.38626431 24.917015 -24.16796875 27.31640625 C-24.16796875 28.96640625 -24.16796875 30.61640625 -24.16796875 32.31640625 C-35.38796875 32.31640625 -46.60796875 32.31640625 -58.16796875 32.31640625 C-58.16796875 31.98640625 -58.16796875 31.65640625 -58.16796875 31.31640625 C-47.27796875 31.31640625 -36.38796875 31.31640625 -25.16796875 31.31640625 C-26.15796875 29.33640625 -27.14796875 27.35640625 -28.16796875 25.31640625 C-29.09190574 19.54180008 -29.05986995 14.0076383 -26.04296875 8.87890625 C-19.65975308 0.17452125 -10.64394023 -3.35619737 0 0 Z " fill="#4E3AEB" transform="translate(147.16796875,53.68359375)"/>
<path d="M0 0 C2.64 0 5.28 0 8 0 C8 19.8 8 39.6 8 60 C5.36 60 2.72 60 0 60 C0 40.2 0 20.4 0 0 Z " fill="#627189" transform="translate(510,73)"/>
<path d="M0 0 C0.5775 0.20625 1.155 0.4125 1.75 0.625 C-1.25 2.625 -1.25 2.625 -4.25 2.625 C-4.24333817 3.29485428 -4.23667633 3.96470856 -4.22981262 4.65486145 C-4.1635486 11.61369029 -4.11823652 18.57242981 -4.08520508 25.53149414 C-4.07009937 28.13016397 -4.04961366 30.72880823 -4.02368164 33.32739258 C-3.98737757 37.05816958 -3.97029142 40.78861013 -3.95703125 44.51953125 C-3.94154739 45.68523148 -3.92606354 46.8509317 -3.91011047 48.05195618 C-3.90977058 49.6732972 -3.90977058 49.6732972 -3.90942383 51.32739258 C-3.90276199 52.28003494 -3.89610016 53.23267731 -3.88923645 54.21418762 C-4.25 56.625 -4.25 56.625 -5.54862976 58.43266296 C-8.38447518 60.42005139 -10.91901484 59.9883802 -14.25 59.625 C-16.39782833 56.40325751 -16.49649148 55.5816269 -16.47705078 51.87817383 C-16.47689972 50.91740433 -16.47674866 49.95663483 -16.47659302 48.9667511 C-16.46627045 47.93229355 -16.45594788 46.897836 -16.4453125 45.83203125 C-16.4424826 44.77086594 -16.43965271 43.70970062 -16.43673706 42.61637878 C-16.42553184 39.22330503 -16.40042647 35.83049413 -16.375 32.4375 C-16.36497065 30.13867568 -16.35584472 27.83984724 -16.34765625 25.54101562 C-16.32559141 19.90225389 -16.29211044 14.26364572 -16.25 8.625 C-15.26 9.12 -15.26 9.12 -14.25 9.625 C-14.25 25.465 -14.25 41.305 -14.25 57.625 C-11.61 57.625 -8.97 57.625 -6.25 57.625 C-6.25 39.145 -6.25 20.665 -6.25 1.625 C-2.25 -0.375 -2.25 -0.375 0 0 Z " fill="#5141CF" transform="translate(149.25,89.375)"/>
<path d="M0 0 C2.5040218 0.91055338 3.45953351 1.61073968 5.0625 3.75 C5.40307617 6.66088867 5.40307617 6.66088867 5.35546875 10.16796875 C5.34580078 11.42158203 5.33613281 12.67519531 5.32617188 13.96679688 C5.30103516 15.27712891 5.27589844 16.58746094 5.25 17.9375 C5.23494967 19.27277163 5.22126187 20.60805937 5.20898438 21.94335938 C5.17357694 25.21264576 5.1241889 28.48112093 5.0625 31.75 C4.4025 31.75 3.7425 31.75 3.0625 31.75 C2.7325 22.51 2.4025 13.27 2.0625 3.75 C-0.2475 3.42 -2.5575 3.09 -4.9375 2.75 C-4.9375 20.57 -4.9375 38.39 -4.9375 56.75 C-5.9275 57.245 -5.9275 57.245 -6.9375 57.75 C-7.01343591 50.1145666 -7.06605169 42.47923023 -7.10229492 34.84350586 C-7.11740063 32.24483603 -7.13788634 29.64619177 -7.16381836 27.04760742 C-7.20012243 23.31683042 -7.21720858 19.58638987 -7.23046875 15.85546875 C-7.24595261 14.68976852 -7.26143646 13.5240683 -7.27738953 12.32304382 C-7.27761612 11.24214981 -7.27784271 10.1612558 -7.27807617 9.04760742 C-7.28473801 8.09496506 -7.29139984 7.14232269 -7.29826355 6.16081238 C-6.87206643 3.31273833 -6.18938016 2.47908898 -3.9375 0.75 C-1.9375 -0.25 -1.9375 -0.25 0 0 Z " fill="#5443CD" transform="translate(83.9375,52.25)"/>
<path d="M0 0 C0.99128906 -0.00257812 1.98257813 -0.00515625 3.00390625 -0.0078125 C5.4375 0.125 5.4375 0.125 6.4375 1.125 C6.53623816 3.12299572 6.56721799 5.12457158 6.5625 7.125 C6.56507813 8.218125 6.56765625 9.31125 6.5703125 10.4375 C6.4375 13.125 6.4375 13.125 5.4375 14.125 C3.24699979 14.03482004 1.059034 13.87833792 -1.125 13.6875 C-2.32253906 13.58566406 -3.52007813 13.48382813 -4.75390625 13.37890625 C-5.68074219 13.29511719 -6.60757813 13.21132812 -7.5625 13.125 C-7.5625 9.165 -7.5625 5.205 -7.5625 1.125 C-4.93920316 -0.18664842 -2.92551375 -0.00762846 0 0 Z " fill="#4D3FD9" transform="translate(642.5625,119.875)"/>
<path d="M0 0 C0.99 0.495 0.99 0.495 2 1 C2 20.14 2 39.28 2 59 C7.218125 58.855625 12.43625 58.71125 17.8125 58.5625 C19.45581299 58.51939697 21.09912598 58.47629395 22.79223633 58.43188477 C24.73005981 58.3747229 24.73005981 58.3747229 26.70703125 58.31640625 C27.38262085 58.29993042 28.05821045 58.28345459 28.75427246 58.26647949 C31.75325638 58.17326708 34.13199549 57.9560015 37 57 C37.495 56.01 37.495 56.01 38 55 C27.77 55 17.54 55 7 55 C7 54.34 7 53.68 7 53 C11.18748519 52.97079857 15.37494391 52.95313354 19.5625 52.9375 C20.74392578 52.92912109 21.92535156 52.92074219 23.14257812 52.91210938 C28.86863072 52.89607001 34.36394482 52.9489295 40 54 C40 55.98 40 57.96 40 60 C26.8 60 13.6 60 0 60 C0 40.2 0 20.4 0 0 Z " fill="#5E697A" transform="translate(585,73)"/>
<path d="M0 0 C0.66 0.33 1.32 0.66 2 1 C3.45148799 1.07203414 4.90625766 1.08386065 6.359375 1.0625 C7.66261719 1.05089844 7.66261719 1.05089844 8.9921875 1.0390625 C10.81510731 1.01324211 12.63802406 0.98720426 14.4609375 0.9609375 C19.10211567 0.91986513 23.43239908 1.03203159 28 2 C28 3.98 28 5.96 28 8 C16.45 8 4.9 8 -7 8 C-6.67 7.01 -6.34 6.02 -6 5 C-6 5.66 -6 6.32 -6 7 C-2.7 6.67 0.6 6.34 4 6 C4 5.34 4 4.68 4 4 C2.68 3.67 1.36 3.34 0 3 C0 2.01 0 1.02 0 0 Z " fill="#5B687D" transform="translate(476,125)"/>
<path d="M0 0 C2.64 0 5.28 0 8 0 C8 19.8 8 39.6 8 60 C5.36 60 2.72 60 0 60 C0.639375 59.71125 1.27875 59.4225 1.9375 59.125 C4.15206079 58.17176549 4.15206079 58.17176549 5 56 C6.09773151 45.71384921 6.10182141 35.33273637 6.125 25 C6.12959229 23.85539307 6.13418457 22.71078613 6.13891602 21.53149414 C6.12748723 15.26988883 5.82854388 9.20750333 5 3 C3.68 3 2.36 3 1 3 C1 6.96 1 10.92 1 15 C0.67 15 0.34 15 0 15 C0 10.05 0 5.1 0 0 Z " fill="#616B7F" transform="translate(567,73)"/>
<path d="M0 0 C0.495 0.99 0.495 0.99 1 2 C0.21625 2.515625 -0.5675 3.03125 -1.375 3.5625 C-4.55594248 6.5162323 -5.11493693 8.81606548 -6 13 C-6.33 13 -6.66 13 -7 13 C-7.2236337 14.41433206 -7.42826476 15.83167618 -7.625 17.25 C-7.74101563 18.03890625 -7.85703125 18.8278125 -7.9765625 19.640625 C-8.00366584 22.3690275 -7.21829556 23.60060875 -6 26 C-6 27.65 -6 29.3 -6 31 C-17.22 31 -28.44 31 -40 31 C-40 30.67 -40 30.34 -40 30 C-29.11 30 -18.22 30 -7 30 C-7.99 28.02 -8.98 26.04 -10 24 C-10.93273238 18.17042265 -10.8769932 12.66226931 -7.8125 7.5 C-5.5962625 4.46058857 -3.11545525 2.13631217 0 0 Z " fill="#4F44B6" transform="translate(129,55)"/>
<path d="M0 0 C2.64 0 5.28 0 8 0 C8 4.95 8 9.9 8 15 C7.67 15 7.34 15 7 15 C6.67 11.7 6.34 8.4 6 5 C5.01 5.33 4.02 5.66 3 6 C2.01857619 10.24733832 1.69079621 14.47324533 1.4375 18.8125 C1.39431641 19.50537109 1.35113281 20.19824219 1.30664062 20.91210938 C1.20138547 22.60788686 1.10027137 24.30392052 1 26 C0.67 26 0.34 26 0 26 C0 17.42 0 8.84 0 0 Z " fill="#616D7F" transform="translate(469,73)"/>
<path d="M0 0 C0 0.99 0 1.98 0 3 C12.54 3 25.08 3 38 3 C38 3.33 38 3.66 38 4 C23.81 4 9.62 4 -5 4 C-5 7.96 -5 11.92 -5 16 C-5.33 16 -5.66 16 -6 16 C-6.08075665 13.70890403 -6.13907731 11.41700733 -6.1875 9.125 C-6.22230469 7.84882812 -6.25710937 6.57265625 -6.29296875 5.2578125 C-6.19628906 4.18273437 -6.09960938 3.10765625 -6 2 C-3 0 -3 0 0 0 Z " fill="#5043C5" transform="translate(94,94)"/>
<path d="M0 0 C0.8971875 0.309375 0.8971875 0.309375 1.8125 0.625 C0.389375 1.2746875 0.389375 1.2746875 -1.0625 1.9375 C-4.38791937 3.41802201 -4.38791937 3.41802201 -6.1875 6.625 C-6.04486712 10.04818917 -5.77210033 11.95379221 -3.5 14.5625 C-0.27629883 16.04366 1.45504319 15.67420525 4.8125 14.625 C7.16881825 12.68783962 7.16881825 12.68783962 8.8125 10.625 C8.42074727 13.06431365 8.0752764 14.35670598 6.32421875 16.14453125 C5.72222656 16.57121094 5.12023437 16.99789062 4.5 17.4375 C3.90574219 17.87707031 3.31148437 18.31664063 2.69921875 18.76953125 C0.33045836 19.84356546 -0.78843031 19.48824141 -3.1875 18.625 C-3.1875 17.965 -3.1875 17.305 -3.1875 16.625 C-4.8375 16.295 -6.4875 15.965 -8.1875 15.625 C-8.5175 12.325 -8.8475 9.025 -9.1875 5.625 C-8.5275 5.625 -7.8675 5.625 -7.1875 5.625 C-6.919375 5.00625 -6.65125 4.3875 -6.375 3.75 C-4.77615771 0.8889138 -3.38774371 -0.58075607 0 0 Z " fill="#4F3FCE" transform="translate(138.1875,64.375)"/>
<path d="M0 0 C4.18748519 -0.02920143 8.37494391 -0.04686646 12.5625 -0.0625 C13.74392578 -0.07087891 14.92535156 -0.07925781 16.14257812 -0.08789062 C21.86863072 -0.10392999 27.36394482 -0.0510705 33 1 C33 2.65 33 4.3 33 6 C31.02 6 29.04 6 27 6 C28.32 4.68 29.64 3.36 31 2 C20.77 2 10.54 2 0 2 C0 1.34 0 0.68 0 0 Z " fill="#404C64" transform="translate(592,126)"/>
<path d="M0 0 C2.31 0 4.62 0 7 0 C6.6875 1.9375 6.6875 1.9375 6 4 C5.01 4.33 4.02 4.66 3 5 C2.34 4.67 1.68 4.34 1 4 C-0.00217064 7.58327753 -0.00217064 7.58327753 1 11 C-0.32 10.67 -1.64 10.34 -3 10 C-3.1875 6.625 -3.1875 6.625 -3 3 C-2.01 2.34 -1.02 1.68 0 1 C0 0.67 0 0.34 0 0 Z " fill="#4F39F7" transform="translate(641,120)"/>
<path d="M0 0 C3.0598026 3.34237013 3.38397379 5.64964091 3.3125 10.125 C3.30863281 11.17945313 3.30476563 12.23390625 3.30078125 13.3203125 C3 16 3 16 1 18 C0.67 17.01 0.34 16.02 0 15 C-2.01508358 14.26676204 -2.01508358 14.26676204 -4 14 C-3.01 13.01 -2.02 12.02 -1 11 C-0.67 11.33 -0.34 11.66 0 12 C0.33 9.69 0.66 7.38 1 5 C0.01 4.67 -0.98 4.34 -2 4 C-1.34 2.68 -0.68 1.36 0 0 Z " fill="#4E3CDD" transform="translate(100,119)"/>
<path d="M0 0 C0.33 0.66 0.66 1.32 1 2 C0.21625 2.515625 -0.5675 3.03125 -1.375 3.5625 C-4.55594248 6.5162323 -5.11493693 8.81606548 -6 13 C-6.33 13 -6.66 13 -7 13 C-7.33 14.65 -7.66 16.3 -8 18 C-8.33 18 -8.66 18 -9 18 C-9.42064893 11.90059045 -9.08964656 8.86336347 -5 4 C-2.25 1.625 -2.25 1.625 0 0 Z " fill="#503ED1" transform="translate(129,55)"/>
<path d="M0 0 C3.64575537 3.64575537 4.125 8.45017592 4.125 13.4375 C4.08375 14.613125 4.0425 15.78875 4 17 C3.67 16.34 3.34 15.68 3 15 C2.34 14.67 1.68 14.34 1 14 C1.33 13.01 1.66 12.02 2 11 C1.01 10.67 0.02 10.34 -1 10 C-0.01 10 0.98 10 2 10 C0.87302957 5.03088634 0.87302957 5.03088634 -2 1 C-1.34 0.67 -0.68 0.34 0 0 Z " fill="#2A3343" transform="translate(459,88)"/>
<path d="M0 0 C0.33 0.99 0.66 1.98 1 3 C-0.23734984 4.03613033 -1.49044637 5.05347802 -2.75 6.0625 C-3.79414063 6.91521484 -3.79414063 6.91521484 -4.859375 7.78515625 C-7 9 -7 9 -9.265625 8.68359375 C-9.83796875 8.45800781 -10.4103125 8.23242188 -11 8 C-11 7.34 -11 6.68 -11 6 C-9.741875 5.7525 -8.48375 5.505 -7.1875 5.25 C-4.16442273 4.51162006 -3.1940517 4.20617994 -1 1.875 C-0.67 1.25625 -0.34 0.6375 0 0 Z " fill="#4C39D8" transform="translate(146,75)"/>
<path d="M0 0 C0 0.99 0 1.98 0 3 C-1.65 3 -3.3 3 -5 3 C-5 7.29 -5 11.58 -5 16 C-5.33 16 -5.66 16 -6 16 C-6.08075665 13.70890403 -6.13907731 11.41700733 -6.1875 9.125 C-6.22230469 7.84882812 -6.25710937 6.57265625 -6.29296875 5.2578125 C-6.19628906 4.18273437 -6.09960938 3.10765625 -6 2 C-3 0 -3 0 0 0 Z " fill="#5442DE" transform="translate(94,94)"/>
<path d="M0 0 C0.99 0.33 1.98 0.66 3 1 C3.33 3.31 3.66 5.62 4 8 C2.35 8 0.7 8 -1 8 C-0.67 5.36 -0.34 2.72 0 0 Z " fill="#3C2BF9" transform="translate(644,126)"/>
<path d="M0 0 C2.96404505 2.80804268 5.44499019 5.18315774 7 9 C3.63408134 7.55746343 1.48952921 5.66735273 -1 3 C-0.67 2.01 -0.34 1.02 0 0 Z " fill="#667183" transform="translate(545,88)"/>
<path d="M0 0 C-0.33 0.66 -0.66 1.32 -1 2 C-1.99 2 -2.98 2 -4 2 C-4.33 2.99 -4.66 3.98 -5 5 C-5.99 5.495 -5.99 5.495 -7 6 C-7 4.02 -7 2.04 -7 0 C-4.3333581 -1.33332095 -2.83319697 -0.67102033 0 0 Z " fill="#4B41CB" transform="translate(642,121)"/>
<path d="M0 0 C3.3 0.99 6.6 1.98 10 3 C8.68 3.99 7.36 4.98 6 6 C5.34 5.34 4.68 4.68 4 4 C2.68252676 3.30251417 1.35085807 2.63040043 0 2 C0 1.34 0 0.68 0 0 Z " fill="#1A232E" transform="translate(246,72)"/>
<path d="M0 0 C0.66 0.66 1.32 1.32 2 2 C0.68 3.32 -0.64 4.64 -2 6 C-4 5 -4 5 -5 3 C-4.34 3 -3.68 3 -3 3 C-2.67 2.34 -2.34 1.68 -2 1 C-1.34 0.67 -0.68 0.34 0 0 Z " fill="#19212F" transform="translate(328,121)"/>
<path d="M0 0 C2.31 0 4.62 0 7 0 C6.67 1.32 6.34 2.64 6 4 C3.03 3.505 3.03 3.505 0 3 C0 2.01 0 1.02 0 0 Z " fill="#3025F4" transform="translate(641,120)"/>
<path d="M0 0 C1.875 0.8125 1.875 0.8125 3.875 2.8125 C2.885 3.3075 2.885 3.3075 1.875 3.8125 C0.885 3.4825 -0.105 3.1525 -1.125 2.8125 C-2.79121616 2.77375079 -4.45894172 2.7674714 -6.125 2.8125 C-2.70744111 -0.23889186 -2.70744111 -0.23889186 0 0 Z " fill="#3B2DE4" transform="translate(84.125,52.1875)"/>
<path d="M0 0 C2.09749995 2.35968744 2.96905704 3.54616994 3.1875 6.75 C3.125625 7.4925 3.06375 8.235 3 9 C2.731875 8.360625 2.46375 7.72125 2.1875 7.0625 C1.11332248 4.66868314 1.11332248 4.66868314 -2 4 C-1.34 2.68 -0.68 1.36 0 0 Z " fill="#4F3ECE" transform="translate(100,119)"/>
<path d="" fill="#000000" transform="translate(0,0)"/>
</svg>
